<svg viewBox="0 0 1120 699" fill="none" xmlns="http://www.w3.org/2000/svg">
  <path d="M0 51.1424C0 128.64 48.6181 191.351 108.701 191.351Z" fill="#2F2E41" />
  <path d="M108.701 191.351C108.701 112.982 162.956 49.567 230.004 49.567Z" fill="#48A394" />
  <path d="M39.3843 58.1677C39.3843 131.782 70.3872 191.351 108.701 191.351Z" fill="#48A394" />
  <path d="M108.701 191.351C108.701 91.2128 171.411 10.1827 248.909 10.1827Z" fill="#2F2E41" />
  <path d="M85.8329 192.339C85.8329 192.339 101.248 191.864 105.894 188.556C110.54 185.248 129.607 181.298 130.76 186.603C131.912 191.909 153.927 212.991 136.522 213.132C119.118 213.272 96.0831 210.421 91.4462 207.596C86.8093 204.772 85.8329 192.339 85.8329 192.339Z" fill="#A8A8A8" />
  <path opacity="0.2" d="M136.833 211.285C119.429 211.425 96.3938 208.574 91.7568 205.749C88.2256 203.598 86.8184 195.88 86.3476 192.319C86.0215 192.333 85.8329 192.339 85.8329 192.339C85.8329 192.339 86.8093 204.772 91.4463 207.596C96.0832 210.421 119.118 213.272 136.523 213.132C141.546 213.091 143.282 211.304 143.186 208.656C142.488 210.256 140.572 211.255 136.833 211.285Z" fill="black" />
  <path d="M198.609 449.94C301.886 449.94 385.609 438.55 385.609 424.5C385.609 410.45 301.886 399.06 198.609 399.06C95.3319 399.06 11.6091 410.45 11.6091 424.5C11.6091 438.55 95.3319 449.94 198.609 449.94Z" fill="#3F3D56" />
  <path opacity="0.1" d="M198.609 445.859C285.318 445.859 355.609 436.296 355.609 424.5C355.609 412.704 285.318 403.141 198.609 403.141C111.9 403.141 41.6091 412.704 41.6091 424.5C41.6091 436.296 111.9 445.859 198.609 445.859Z" fill="black" />
  <path d="M836.609 699C992.906 699 1119.61 681.763 1119.61 660.5C1119.61 639.237 992.906 622 836.609 622C680.313 622 553.609 639.237 553.609 660.5C553.609 681.763 680.313 699 836.609 699Z" fill="#3F3D56" />
  <path d="M310.609 668.627C404.498 668.627 480.609 658.273 480.609 645.5C480.609 632.727 404.498 622.373 310.609 622.373C216.721 622.373 140.609 632.727 140.609 645.5C140.609 658.273 216.721 668.627 310.609 668.627Z" fill="#3F3D56" />
  <path d="M462.609 626C552.609 649 725.609 596 744.609 536" stroke="#2F2E41" stroke-width="2" stroke-miterlimit="10" />
  <path d="M309.609 259C309.609 259 439.609 223 447.609 339C455.609 455 340.609 488 430.609 511" stroke="#2F2E41" stroke-width="2" stroke-miterlimit="10" />
  <path d="M184.011 537.283C184.011 537.283 223.084 526.463 225.488 561.328C227.893 596.192 193.329 606.111 220.379 613.024" stroke="#2F2E41" stroke-width="2" stroke-miterlimit="10" />
  <path d="M778.705 563.24L770.827 613.535C770.827 613.535 732.045 634.138 759.314 634.744C786.582 635.35 915.047 634.744 915.047 634.744C915.047 634.744 939.892 634.744 900.504 612.929L892.626 560.21L778.705 563.24Z" fill="#2F2E41" />
  <path opacity="0.1" d="M753.828 634.198C760.021 628.688 770.827 622.946 770.827 622.946L778.705 572.651L892.626 572.758L900.504 622.34C909.689 627.427 915.379 631.327 918.707 634.318C923.766 633.164 929.295 628.875 900.504 612.929L892.626 560.21L778.705 563.24L770.827 613.535C770.827 613.535 738.239 630.85 753.828 634.198Z" fill="black" />
  <path d="M1073.64 212.689H596.479C586.512 212.689 578.433 220.768 578.433 230.734V552.163C578.433 562.129 586.512 570.208 596.479 570.208H1073.64C1083.61 570.208 1091.69 562.129 1091.69 552.163V230.734C1091.69 220.768 1083.61 212.689 1073.64 212.689Z" fill="#2F2E41" />
  <path d="M1074.42 231.777H595.703V499.613H1074.42V231.777Z" fill="#272727" />
  <path d="M835.06 226.323C836.733 226.323 838.089 224.966 838.089 223.293C838.089 221.62 836.733 220.263 835.06 220.263C833.386 220.263 832.03 221.62 832.03 223.293C832.03 224.966 833.386 226.323 835.06 226.323Z" fill="#F2F2F2" />
  <path d="M1091.69 520.822V552.163C1091.69 554.533 1091.22 556.879 1090.31 559.069C1089.41 561.258 1088.08 563.248 1086.4 564.924C1084.73 566.599 1082.74 567.929 1080.55 568.835C1078.36 569.742 1076.01 570.209 1073.64 570.208H596.479C594.109 570.209 591.762 569.742 589.573 568.835C587.383 567.929 585.393 566.599 583.718 564.924C582.042 563.248 580.713 561.258 579.806 559.069C578.899 556.879 578.433 554.533 578.433 552.163V520.822H1091.69Z" fill="#2F2E41" />
  <path opacity="0.1" d="M311.5 658C387.991 658 450 649.941 450 640C450 630.059 387.991 622 311.5 622C235.009 622 173 630.059 173 640C173 649.941 235.009 658 311.5 658Z" fill="black" />
  <path d="M968.978 667.466V673.526H642.968V668.678L643.417 667.466L651.452 645.651H962.312L968.978 667.466Z" fill="#2F2E41" />
  <path d="M1094.44 661.534C1093.84 664.073 1091.6 666.751 1086.54 669.284C1068.36 678.373 1031.39 666.86 1031.39 666.86C1031.39 666.86 1002.91 662.012 1002.91 649.287C1003.71 648.739 1004.55 648.244 1005.41 647.803C1013.05 643.759 1038.39 633.781 1083.33 648.225C1086.64 649.264 1089.59 651.202 1091.87 653.822C1093.69 655.954 1095.12 658.657 1094.44 661.534Z" fill="#2F2E41" />
  <path opacity="0.1" d="M1094.44 661.534C1072.19 670.06 1052.35 670.696 1032 656.559C1021.73 649.432 1012.41 647.669 1005.41 647.802C1013.05 643.759 1038.39 633.781 1083.33 648.225C1086.64 649.264 1089.59 651.202 1091.87 653.822C1093.69 655.953 1095.12 658.657 1094.44 661.534Z" fill="black" />
  <path d="M1066.54 656.559C1070.89 656.559 1074.42 655.473 1074.42 654.135C1074.42 652.796 1070.89 651.711 1066.54 651.711C1062.19 651.711 1058.66 652.796 1058.66 654.135C1058.66 655.473 1062.19 656.559 1066.54 656.559Z" fill="#F2F2F2" />
  <path d="M835.06 557.18C841.418 557.18 846.573 552.026 846.573 545.667C846.573 539.308 841.418 534.154 835.06 534.154C828.701 534.154 823.546 539.308 823.546 545.667C823.546 552.026 828.701 557.18 835.06 557.18Z" fill="#F2F2F2" />
  <path opacity="0.1" d="M968.978 667.466V673.526H642.968V668.678L643.417 667.466H968.978Z" fill="black" />
  <path d="M316.609 159H108.609V401H316.609V159Z" fill="#2F2E41" />
  <path d="M337.609 135H87.6091V221H337.609V135Z" fill="#3F3D56" />
  <path d="M337.609 237H87.6091V323H337.609V237Z" fill="#3F3D56" />
  <path d="M337.609 339H87.6091V425H337.609V339Z" fill="#3F3D56" />
  <path opacity="0.4" d="M287.609 150H271.609V166H287.609V150Z" fill="#DE6987" />
  <path opacity="0.8" d="M310.609 150H294.609V166H310.609V150Z" fill="#DE6987" />
  <path d="M333.609 150H317.609V166H333.609V150Z" fill="#DE6987" />
  <path opacity="0.4" d="M287.609 251H271.609V267H287.609V251Z" fill="#DE6987" />
  <path opacity="0.8" d="M310.609 251H294.609V267H310.609V251Z" fill="#DE6987" />
  <path d="M333.609 251H317.609V267H333.609V251Z" fill="#DE6987" />
  <path opacity="0.4" d="M287.609 352H271.609V368H287.609V352Z" fill="#DE6987" />
  <path opacity="0.8" d="M310.609 352H294.609V368H310.609V352Z" fill="#DE6987" />
  <path d="M333.609 352H317.609V368H333.609V352Z" fill="#DE6987" />
  <path d="M316.609 617C360.24 617 395.609 581.63 395.609 538C395.609 494.37 360.24 459 316.609 459C272.979 459 237.609 494.37 237.609 538C237.609 581.63 272.979 617 316.609 617Z" fill="#2F2E41" />
  <path d="M304.609 600H280.609V643H304.609V600Z" fill="#2F2E41" />
  <path d="M352.609 600H328.609V643H352.609V600Z" fill="#2F2E41" />
  <path d="M300.609 651C311.655 651 320.609 647.642 320.609 643.5C320.609 639.358 311.655 636 300.609 636C289.563 636 280.609 639.358 280.609 643.5C280.609 647.642 289.563 651 300.609 651Z" fill="#2F2E41" />
  <path d="M348.609 650C359.655 650 368.609 646.642 368.609 642.5C368.609 638.358 359.655 635 348.609 635C337.563 635 328.609 638.358 328.609 642.5C328.609 646.642 337.563 650 348.609 650Z" fill="#2F2E41" />
  <path d="M318.609 545C333.521 545 345.609 532.912 345.609 518C345.609 503.088 333.521 491 318.609 491C303.697 491 291.609 503.088 291.609 518C291.609 532.912 303.697 545 318.609 545Z" fill="#48A394" />
  <path d="M318.609 527C323.58 527 327.609 522.971 327.609 518C327.609 513.029 323.58 509 318.609 509C313.639 509 309.609 513.029 309.609 518C309.609 522.971 313.639 527 318.609 527Z" fill="#3F3D56" />
  <path d="M390.703 522.244C410.759 513.66 424.833 501.597 422.138 495.301C419.443 489.005 401 490.86 380.945 499.444C360.889 508.028 346.816 520.09 349.511 526.386C352.205 532.682 370.648 530.827 390.703 522.244Z" fill="#2F2E41" />
  <path d="M242.703 575.244C262.759 566.66 276.833 554.597 274.138 548.301C271.443 542.005 253 543.86 232.945 552.444C212.889 561.027 198.816 573.09 201.51 579.386C204.205 585.682 222.648 583.827 242.703 575.244Z" fill="#2F2E41" />
  <path d="M362.609 561C362.609 568.732 342.7 584 320.609 584C298.518 584 277.609 569.732 277.609 562C277.609 554.268 298.518 556 320.609 556C342.7 556 362.609 553.268 362.609 561Z" fill="#A34857" />
  <path d="M345 570.217C345 574.765 333.289 584 320.294 584C307.299 584 295 575.353 295 570.805C295 566.257 307.299 567.276 320.294 567.276C333.289 567.276 345 565.668 345 570.217Z" fill="#B35A69" />
  <path d="M832.496 418.25C834.54 418.25 836.255 417.559 837.641 416.176C839.026 414.793 839.719 413.079 839.719 411.035C839.719 408.991 839.027 407.276 837.645 405.891C836.262 404.505 834.548 403.813 832.504 403.813C830.46 403.813 828.745 404.504 827.359 405.887C825.974 407.27 825.281 408.983 825.281 411.027C825.281 413.072 825.973 414.786 827.355 416.172C828.738 417.557 830.452 418.25 832.496 418.25ZM826.594 384.781H839.719V329.437H826.594V384.781ZM832.558 462C820.493 462 809.154 459.703 798.543 455.109C787.931 450.516 778.651 444.245 770.703 436.297C762.755 428.349 756.484 419.064 751.891 408.441C747.297 397.819 745 386.468 745 374.391C745 362.313 747.297 350.963 751.891 340.34C756.484 329.718 762.755 320.469 770.703 312.594C778.651 304.719 787.936 298.484 798.559 293.891C809.181 289.297 820.532 287 832.609 287C844.687 287 856.037 289.297 866.66 293.891C877.282 298.484 886.531 304.719 894.406 312.594C902.281 320.469 908.516 329.729 913.109 340.375C917.703 351.021 920 362.376 920 374.442C920 386.507 917.703 397.846 913.109 408.457C908.516 419.069 902.281 428.336 894.406 436.257C886.531 444.178 877.271 450.449 866.625 455.069C855.979 459.69 844.624 462 832.558 462ZM832.609 448.875C853.245 448.875 870.781 441.62 885.219 427.109C899.656 412.599 906.875 395.026 906.875 374.391C906.875 353.755 899.67 336.219 885.26 321.781C870.85 307.344 853.263 300.125 832.5 300.125C811.937 300.125 794.401 307.33 779.891 321.74C765.38 336.15 758.125 353.737 758.125 374.5C758.125 395.063 765.38 412.599 779.891 427.109C794.401 441.62 811.974 448.875 832.609 448.875Z" fill="#F44336" />
</svg>