<svg data-v-423bf9ae="" xmlns="http://www.w3.org/2000/svg" viewBox="0 0 534 142" class="iconLeft"><!----><!----><!----><g data-v-423bf9ae="" id="18d1b4c9-42e7-44e5-91db-1bdadbed0b6f" fill="#ffffff" transform="matrix(4.504504285197865,0,0,4.504504285197865,179.1795693662846,27.650600455260907)"><path d="M3.40 13.64L3.40 13.64Q2.49 13.64 1.65 13.39L1.65 13.39L1.65 13.39Q0.81 13.15 0.34 12.77L0.34 12.77L0.90 11.70L0.90 11.70Q1.39 12.05 2.09 12.26L2.09 12.26L2.09 12.26Q2.79 12.47 3.50 12.47L3.50 12.47L3.50 12.47Q5.26 12.47 5.26 11.47L5.26 11.47L5.26 11.47Q5.26 11.13 5.03 10.93L5.03 10.93L5.03 10.93Q4.79 10.74 4.43 10.65L4.43 10.65L4.43 10.65Q4.07 10.56 3.42 10.44L3.42 10.44L3.42 10.44Q2.52 10.30 1.95 10.12L1.95 10.12L1.95 10.12Q1.39 9.94 0.98 9.51L0.98 9.51L0.98 9.51Q0.57 9.07 0.57 8.29L0.57 8.29L0.57 8.29Q0.57 7.28 1.41 6.67L1.41 6.67L1.41 6.67Q2.25 6.06 3.67 6.06L3.67 6.06L3.67 6.06Q4.41 6.06 5.15 6.24L5.15 6.24L5.15 6.24Q5.89 6.43 6.37 6.73L6.37 6.73L5.80 7.80L5.80 7.80Q4.89 7.21 3.65 7.21L3.65 7.21L3.65 7.21Q2.80 7.21 2.35 7.49L2.35 7.49L2.35 7.49Q1.90 7.77 1.90 8.23L1.90 8.23L1.90 8.23Q1.90 8.60 2.16 8.81L2.16 8.81L2.16 8.81Q2.41 9.02 2.78 9.11L2.78 9.11L2.78 9.11Q3.15 9.21 3.82 9.34L3.82 9.34L3.82 9.34Q4.72 9.49 5.27 9.67L5.27 9.67L5.27 9.67Q5.82 9.84 6.22 10.26L6.22 10.26L6.22 10.26Q6.61 10.68 6.61 11.44L6.61 11.44L6.61 11.44Q6.61 12.45 5.75 13.04L5.75 13.04L5.75 13.04Q4.89 13.64 3.40 13.64L3.40 13.64ZM12.25 6.06L12.25 6.06Q13.66 6.06 14.50 6.88L14.50 6.88L14.50 6.88Q15.33 7.70 15.33 9.28L15.33 9.28L15.33 13.55L13.99 13.55L13.99 9.44L13.99 9.44Q13.99 8.36 13.47 7.81L13.47 7.81L13.47 7.81Q12.95 7.27 11.98 7.27L11.98 7.27L11.98 7.27Q10.89 7.27 10.26 7.90L10.26 7.90L10.26 7.90Q9.63 8.54 9.63 9.73L9.63 9.73L9.63 13.55L8.29 13.55L8.29 3.16L9.63 3.16L9.63 7.18L9.63 7.18Q10.05 6.65 10.73 6.36L10.73 6.36L10.73 6.36Q11.41 6.06 12.25 6.06L12.25 6.06ZM21 13.64L21 13.64Q19.89 13.64 19.01 13.15L19.01 13.15L19.01 13.15Q18.13 12.66 17.63 11.79L17.63 11.79L17.63 11.79Q17.14 10.93 17.14 9.84L17.14 9.84L17.14 9.84Q17.14 8.75 17.63 7.89L17.63 7.89L17.63 7.89Q18.13 7.03 19.01 6.54L19.01 6.54L19.01 6.54Q19.89 6.06 21 6.06L21 6.06L21 6.06Q22.11 6.06 22.98 6.54L22.98 6.54L22.98 6.54Q23.86 7.03 24.35 7.89L24.35 7.89L24.35 7.89Q24.85 8.75 24.85 9.84L24.85 9.84L24.85 9.84Q24.85 10.93 24.35 11.79L24.35 11.79L24.35 11.79Q23.86 12.66 22.98 13.15L22.98 13.15L22.98 13.15Q22.11 13.64 21 13.64L21 13.64ZM21 12.46L21 12.46Q21.71 12.46 22.28 12.13L22.28 12.13L22.28 12.13Q22.85 11.80 23.17 11.21L23.17 11.21L23.17 11.21Q23.49 10.61 23.49 9.84L23.49 9.84L23.49 9.84Q23.49 9.07 23.17 8.48L23.17 8.48L23.17 8.48Q22.85 7.88 22.28 7.56L22.28 7.56L22.28 7.56Q21.71 7.24 21 7.24L21 7.24L21 7.24Q20.29 7.24 19.72 7.56L19.72 7.56L19.72 7.56Q19.15 7.88 18.82 8.48L18.82 8.48L18.82 8.48Q18.49 9.07 18.49 9.84L18.49 9.84L18.49 9.84Q18.49 10.61 18.82 11.21L18.82 11.21L18.82 11.21Q19.15 11.80 19.72 12.13L19.72 12.13L19.72 12.13Q20.29 12.46 21 12.46L21 12.46ZM30.65 6.06L30.65 6.06Q31.72 6.06 32.58 6.54L32.58 6.54L32.58 6.54Q33.43 7.01 33.92 7.87L33.92 7.87L33.92 7.87Q34.40 8.72 34.40 9.84L34.40 9.84L34.40 9.84Q34.40 10.96 33.92 11.82L33.92 11.82L33.92 11.82Q33.43 12.68 32.58 13.16L32.58 13.16L32.58 13.16Q31.72 13.64 30.65 13.64L30.65 13.64L30.65 13.64Q29.85 13.64 29.18 13.33L29.18 13.33L29.18 13.33Q28.52 13.02 28.06 12.43L28.06 12.43L28.06 16.27L26.71 16.27L26.71 6.13L28.00 6.13L28.00 7.31L28.00 7.31Q28.45 6.69 29.13 6.38L29.13 6.38L29.13 6.38Q29.82 6.06 30.65 6.06L30.65 6.06ZM30.53 12.46L30.53 12.46Q31.25 12.46 31.82 12.13L31.82 12.13L31.82 12.13Q32.38 11.80 32.71 11.21L32.71 11.21L32.71 11.21Q33.04 10.61 33.04 9.84L33.04 9.84L33.04 9.84Q33.04 9.07 32.71 8.48L32.71 8.48L32.71 8.48Q32.38 7.88 31.82 7.56L31.82 7.56L31.82 7.56Q31.25 7.24 30.53 7.24L30.53 7.24L30.53 7.24Q29.83 7.24 29.27 7.57L29.27 7.57L29.27 7.57Q28.70 7.90 28.37 8.48L28.37 8.48L28.37 8.48Q28.04 9.07 28.04 9.84L28.04 9.84L28.04 9.84Q28.04 10.61 28.36 11.21L28.36 11.21L28.36 11.21Q28.69 11.80 29.26 12.13L29.26 12.13L29.26 12.13Q29.83 12.46 30.53 12.46L30.53 12.46ZM45.54 6.06L45.54 6.06Q46.94 6.06 47.76 6.87L47.76 6.87L47.76 6.87Q48.58 7.69 48.58 9.28L48.58 9.28L48.58 13.55L47.24 13.55L47.24 9.44L47.24 9.44Q47.24 8.36 46.74 7.81L46.74 7.81L46.74 7.81Q46.24 7.27 45.32 7.27L45.32 7.27L45.32 7.27Q44.30 7.27 43.69 7.90L43.69 7.90L43.69 7.90Q43.09 8.54 43.09 9.73L43.09 9.73L43.09 13.55L41.75 13.55L41.75 9.44L41.75 9.44Q41.75 8.36 41.25 7.81L41.25 7.81L41.25 7.81Q40.75 7.27 39.83 7.27L39.83 7.27L39.83 7.27Q38.81 7.27 38.21 7.90L38.21 7.90L38.21 7.90Q37.60 8.54 37.60 9.73L37.60 9.73L37.60 13.55L36.26 13.55L36.26 6.13L37.55 6.13L37.55 7.24L37.55 7.24Q37.95 6.66 38.61 6.36L38.61 6.36L38.61 6.36Q39.27 6.06 40.11 6.06L40.11 6.06L40.11 6.06Q40.98 6.06 41.65 6.41L41.65 6.41L41.65 6.41Q42.32 6.76 42.69 7.43L42.69 7.43L42.69 7.43Q43.11 6.79 43.86 6.43L43.86 6.43L43.86 6.43Q44.60 6.06 45.54 6.06L45.54 6.06ZM53.76 6.06L53.76 6.06Q55.30 6.06 56.12 6.82L56.12 6.82L56.12 6.82Q56.94 7.57 56.94 9.07L56.94 9.07L56.94 13.55L55.66 13.55L55.66 12.57L55.66 12.57Q55.33 13.09 54.71 13.36L54.71 13.36L54.71 13.36Q54.08 13.64 53.23 13.64L53.23 13.64L53.23 13.64Q51.98 13.64 51.23 13.03L51.23 13.03L51.23 13.03Q50.48 12.43 50.48 11.45L50.48 11.45L50.48 11.45Q50.48 10.47 51.20 9.88L51.20 9.88L51.20 9.88Q51.91 9.28 53.47 9.28L53.47 9.28L55.59 9.28L55.59 9.02L55.59 9.02Q55.59 8.15 55.09 7.69L55.09 7.69L55.09 7.69Q54.59 7.22 53.61 7.22L53.61 7.22L53.61 7.22Q52.95 7.22 52.32 7.44L52.32 7.44L52.32 7.44Q51.69 7.66 51.25 8.02L51.25 8.02L50.69 7.01L50.69 7.01Q51.27 6.55 52.07 6.31L52.07 6.31L52.07 6.31Q52.86 6.06 53.76 6.06L53.76 6.06ZM53.45 12.60L53.45 12.60Q54.22 12.60 54.78 12.26L54.78 12.26L54.78 12.26Q55.34 11.91 55.59 11.28L55.59 11.28L55.59 10.25L53.52 10.25L53.52 10.25Q51.81 10.25 51.81 11.40L51.81 11.40L51.81 11.40Q51.81 11.96 52.25 12.28L52.25 12.28L52.25 12.28Q52.68 12.60 53.45 12.60L53.45 12.60ZM63.39 6.06L63.39 6.06Q64.81 6.06 65.64 6.88L65.64 6.88L65.64 6.88Q66.47 7.70 66.47 9.28L66.47 9.28L66.47 13.55L65.13 13.55L65.13 9.44L65.13 9.44Q65.13 8.36 64.61 7.81L64.61 7.81L64.61 7.81Q64.09 7.27 63.13 7.27L63.13 7.27L63.13 7.27Q62.03 7.27 61.40 7.90L61.40 7.90L61.40 7.90Q60.77 8.54 60.77 9.73L60.77 9.73L60.77 13.55L59.43 13.55L59.43 6.13L60.72 6.13L60.72 7.25L60.72 7.25Q61.12 6.68 61.82 6.37L61.82 6.37L61.82 6.37Q62.51 6.06 63.39 6.06L63.39 6.06ZM68.96 13.55L68.96 6.13L70.31 6.13L70.31 13.55L68.96 13.55ZM69.64 4.70L69.64 4.70Q69.24 4.70 68.99 4.45L68.99 4.45L68.99 4.45Q68.73 4.20 68.73 3.84L68.73 3.84L68.73 3.84Q68.73 3.47 68.99 3.21L68.99 3.21L68.99 3.21Q69.24 2.95 69.64 2.95L69.64 2.95L69.64 2.95Q70.03 2.95 70.29 3.20L70.29 3.20L70.29 3.20Q70.55 3.44 70.55 3.81L70.55 3.81L70.55 3.81Q70.55 4.19 70.29 4.45L70.29 4.45L70.29 4.45Q70.03 4.70 69.64 4.70L69.64 4.70ZM75.57 6.06L75.57 6.06Q77.11 6.06 77.93 6.82L77.93 6.82L77.93 6.82Q78.75 7.57 78.75 9.07L78.75 9.07L78.75 13.55L77.48 13.55L77.48 12.57L77.48 12.57Q77.14 13.09 76.52 13.36L76.52 13.36L76.52 13.36Q75.89 13.64 75.04 13.64L75.04 13.64L75.04 13.64Q73.79 13.64 73.05 13.03L73.05 13.03L73.05 13.03Q72.30 12.43 72.30 11.45L72.30 11.45L72.30 11.45Q72.30 10.47 73.01 9.88L73.01 9.88L73.01 9.88Q73.72 9.28 75.28 9.28L75.28 9.28L77.41 9.28L77.41 9.02L77.41 9.02Q77.41 8.15 76.90 7.69L76.90 7.69L76.90 7.69Q76.40 7.22 75.42 7.22L75.42 7.22L75.42 7.22Q74.76 7.22 74.13 7.44L74.13 7.44L74.13 7.44Q73.50 7.66 73.07 8.02L73.07 8.02L72.51 7.01L72.51 7.01Q73.08 6.55 73.88 6.31L73.88 6.31L73.88 6.31Q74.68 6.06 75.57 6.06L75.57 6.06ZM75.26 12.60L75.26 12.60Q76.03 12.60 76.59 12.26L76.59 12.26L76.59 12.26Q77.15 11.91 77.41 11.28L77.41 11.28L77.41 10.25L75.33 10.25L75.33 10.25Q73.63 10.25 73.63 11.40L73.63 11.40L73.63 11.40Q73.63 11.96 74.06 12.28L74.06 12.28L74.06 12.28Q74.49 12.60 75.26 12.60L75.26 12.60Z"></path></g><defs data-v-423bf9ae=""><linearGradient data-v-423bf9ae="" gradientTransform="rotate(25)" id="edf2a3cf-6fed-435b-8c6b-916cfc069e41" x1="0%" y1="0%" x2="100%" y2="0%"><stop data-v-423bf9ae="" offset="0%" style="stop-color: rgb(201, 58, 95); stop-opacity: 1;"></stop><stop data-v-423bf9ae="" offset="100%" style="stop-color: rgb(239, 176, 202); stop-opacity: 1;"></stop></linearGradient></defs><g data-v-423bf9ae="" id="962c6566-231c-4e8d-abc4-90175074b497" transform="matrix(1.2555555555555555,0,0,1.2555555555555555,0.6444444444444457,-8.855555555555554)" stroke="none" fill="url(#edf2a3cf-6fed-435b-8c6b-916cfc069e41)"><path d="M8 108.5h44v8H40a2 2 0 0 0 0 4h48a2 2 0 0 0 0-4H76v-8h44c4.418 0 8-3.574 8-7.982V40.481c0-4.408-3.582-7.981-8-7.981H85v13c0 3.308-2.692 6-6 6h5.099c4.596 0 7.015 3.672 5.4 8.202l-2.707 7.596c-1.614 4.53-2.55 8.202-7.146 8.202H57.137l1.212 4H85a2 2 0 0 1 0 4H55.381l-10.908-36H37a2 2 0 0 1 0-4h10.441l2.424 8H55c-3.308 0-6-2.692-6-6v-13H8c-4.418 0-8 3.573-8 7.981v60.036c0 4.409 3.582 7.983 8 7.983zm71.25-21c2.209 0 4 1.795 4 4.002 0 2.203-1.791 3.998-4 3.998s-4-1.795-4-3.998a4.003 4.003 0 0 1 4-4.002zm-18.167 0c2.21 0 4 1.795 4 4.002a4.002 4.002 0 0 1-4 3.998c-2.209 0-4-1.795-4-3.998a4.003 4.003 0 0 1 4-4.002zM56 108.5h16v8H56v-8z"></path><path d="M73 45.5v-4c0 3.308-2.692 6-6 6s-6-2.692-6-6v4c0 3.308-2.692 6-6 6h24c-3.308 0-6-2.692-6-6z"></path><path d="M65 9.5v32a2 2 0 0 0 4 0v-32a2 2 0 0 0-4 0zM77 21.5v24a2 2 0 0 0 4 0v-24a2 2 0 0 0-4 0zM53 21.5v24a2 2 0 0 0 4 0v-24a2 2 0 0 0-4 0z"></path></g><!----></svg>