<svg width="534" height="142" viewBox="0 0 534 142" fill="none" xmlns="http://www.w3.org/2000/svg">
<g clip-path="url(#clip0_4_95)">
<path d="M194.784 98.1532C192.051 98.1532 189.423 97.7778 186.901 97.027C184.378 96.3063 182.411 95.3754 181 94.2342L183.523 89.4144C184.994 90.4655 186.781 91.3063 188.883 91.9369C190.985 92.5676 193.102 92.8829 195.234 92.8829C200.52 92.8829 203.162 91.3814 203.162 88.3784C203.162 87.3574 202.817 86.5465 202.126 85.9459C201.405 85.3754 200.505 84.955 199.423 84.6847C198.342 84.4144 196.826 84.0991 194.874 83.7387C192.171 83.3183 189.964 82.8378 188.252 82.2973C186.571 81.7568 185.114 80.8408 183.883 79.5495C182.652 78.2282 182.036 76.3964 182.036 74.0541C182.036 71.021 183.297 68.5886 185.82 66.7568C188.342 64.9249 191.736 64.009 196 64.009C198.222 64.009 200.444 64.2793 202.667 64.8198C204.889 65.3904 206.721 66.1261 208.162 67.027L205.595 71.8468C202.862 70.0751 199.634 69.1892 195.91 69.1892C193.357 69.1892 191.405 69.6096 190.054 70.4504C188.703 71.2913 188.027 72.4024 188.027 73.7838C188.027 74.8949 188.417 75.7658 189.198 76.3964C189.949 77.027 190.88 77.4775 191.991 77.7477C193.102 78.048 194.664 78.3934 196.676 78.7838C199.378 79.2342 201.556 79.7297 203.207 80.2703C204.859 80.7808 206.285 81.6667 207.486 82.9279C208.658 84.1892 209.243 85.961 209.243 88.2432C209.243 91.2763 207.952 93.6787 205.369 95.4504C202.787 97.2522 199.258 98.1532 194.784 98.1532ZM234.649 64.009C238.883 64.009 242.261 65.2402 244.784 67.7027C247.276 70.1652 248.523 73.7688 248.523 78.5135V97.7477H242.486V79.2342C242.486 75.991 241.706 73.5435 240.144 71.8919C238.583 70.2703 236.345 69.4595 233.432 69.4595C230.159 69.4595 227.577 70.4054 225.685 72.2973C223.793 74.2192 222.847 76.967 222.847 80.5405V97.7477H216.811V50.9459H222.847V69.0541C224.108 67.4625 225.76 66.2312 227.802 65.3604C229.844 64.4595 232.126 64.009 234.649 64.009ZM274.063 98.1532C270.73 98.1532 267.742 97.4174 265.099 95.9459C262.456 94.4745 260.384 92.4324 258.883 89.8198C257.411 87.2372 256.676 84.3093 256.676 81.036C256.676 77.7628 257.411 74.8348 258.883 72.2522C260.384 69.6697 262.456 67.6426 265.099 66.1712C267.742 64.7297 270.73 64.009 274.063 64.009C277.396 64.009 280.369 64.7297 282.982 66.1712C285.625 67.6426 287.682 69.6697 289.153 72.2522C290.655 74.8348 291.405 77.7628 291.405 81.036C291.405 84.3093 290.655 87.2372 289.153 89.8198C287.682 92.4324 285.625 94.4745 282.982 95.9459C280.369 97.4174 277.396 98.1532 274.063 98.1532ZM274.063 92.8378C276.195 92.8378 278.117 92.3423 279.829 91.3513C281.541 90.3604 282.877 88.979 283.838 87.2072C284.799 85.4054 285.279 83.3483 285.279 81.036C285.279 78.7237 284.799 76.6817 283.838 74.9099C282.877 73.1081 281.541 71.7267 279.829 70.7658C278.117 69.8048 276.195 69.3243 274.063 69.3243C271.931 69.3243 270.009 69.8048 268.297 70.7658C266.586 71.7267 265.234 73.1081 264.243 74.9099C263.252 76.6817 262.757 78.7237 262.757 81.036C262.757 83.3483 263.252 85.4054 264.243 87.2072C265.234 88.979 266.586 90.3604 268.297 91.3513C270.009 92.3423 271.931 92.8378 274.063 92.8378ZM317.532 64.009C320.745 64.009 323.643 64.7297 326.225 66.1712C328.778 67.5826 330.79 69.5796 332.261 72.1622C333.703 74.7147 334.423 77.6727 334.423 81.036C334.423 84.3994 333.703 87.3724 332.261 89.955C330.79 92.5375 328.778 94.5495 326.225 95.991C323.643 97.4324 320.745 98.1532 317.532 98.1532C315.129 98.1532 312.922 97.6877 310.91 96.7568C308.928 95.8258 307.246 94.4745 305.865 92.7027V110H299.784V64.3243H305.595V69.6396C306.946 67.7778 308.643 66.3814 310.685 65.4504C312.757 64.4895 315.039 64.009 317.532 64.009ZM316.991 92.8378C319.153 92.8378 321.09 92.3423 322.802 91.3513C324.483 90.3604 325.82 88.979 326.811 87.2072C327.802 85.4054 328.297 83.3483 328.297 81.036C328.297 78.7237 327.802 76.6817 326.811 74.9099C325.82 73.1081 324.483 71.7267 322.802 70.7658C321.09 69.8048 319.153 69.3243 316.991 69.3243C314.889 69.3243 312.997 69.8198 311.315 70.8108C309.604 71.8018 308.252 73.1682 307.261 74.9099C306.27 76.6817 305.775 78.7237 305.775 81.036C305.775 83.3483 306.255 85.4054 307.216 87.2072C308.207 88.979 309.559 90.3604 311.27 91.3513C312.982 92.3423 314.889 92.8378 316.991 92.8378ZM384.604 64.009C388.808 64.009 392.141 65.2252 394.604 67.6577C397.066 70.1201 398.297 73.7387 398.297 78.5135V97.7477H392.261V79.2342C392.261 75.991 391.511 73.5435 390.009 71.8919C388.508 70.2703 386.375 69.4595 383.613 69.4595C380.55 69.4595 378.102 70.4054 376.27 72.2973C374.468 74.2192 373.568 76.967 373.568 80.5405V97.7477H367.532V79.2342C367.532 75.991 366.781 73.5435 365.279 71.8919C363.778 70.2703 361.646 69.4595 358.883 69.4595C355.82 69.4595 353.387 70.4054 351.586 72.2973C349.754 74.2192 348.838 76.967 348.838 80.5405V97.7477H342.802V64.3243H348.613V69.3243C349.814 67.5826 351.405 66.2613 353.387 65.3604C355.369 64.4595 357.622 64.009 360.144 64.009C362.757 64.009 365.069 64.5345 367.081 65.5856C369.093 66.6366 370.655 68.1682 371.766 70.1802C373.027 68.2583 374.784 66.7568 377.036 65.6757C379.258 64.5646 381.781 64.009 384.604 64.009ZM421.631 64.009C426.255 64.009 429.799 65.1501 432.261 67.4324C434.724 69.6847 435.955 73.0631 435.955 77.5676V97.7477H430.189V93.3333C429.198 94.8949 427.772 96.0811 425.91 96.8919C424.018 97.7327 421.796 98.1532 419.243 98.1532C415.489 98.1532 412.486 97.2372 410.234 95.4054C407.982 93.6036 406.856 91.2312 406.856 88.2883C406.856 85.3453 407.937 82.988 410.099 81.2162C412.231 79.4144 415.64 78.5135 420.324 78.5135H429.874V77.3423C429.874 74.7297 429.123 72.7327 427.622 71.3513C426.12 69.9399 423.898 69.2342 420.955 69.2342C418.973 69.2342 417.036 69.5646 415.144 70.2252C413.252 70.8859 411.646 71.7568 410.324 72.8378L407.802 68.2883C409.544 66.9069 411.616 65.8559 414.018 65.1351C416.39 64.3844 418.928 64.009 421.631 64.009ZM420.234 93.4685C422.547 93.4685 424.544 92.958 426.225 91.9369C427.907 90.8859 429.123 89.4144 429.874 87.5225V82.8829H420.55C415.414 82.8829 412.847 84.6096 412.847 88.0631C412.847 89.7447 413.508 91.0661 414.829 92.027C416.12 92.988 417.922 93.4685 420.234 93.4685ZM465.009 64.009C469.273 64.009 472.652 65.2402 475.144 67.7027C477.637 70.1652 478.883 73.7688 478.883 78.5135V97.7477H472.847V79.2342C472.847 75.991 472.066 73.5435 470.505 71.8919C468.943 70.2703 466.721 69.4595 463.838 69.4595C460.535 69.4595 457.937 70.4054 456.045 72.2973C454.153 74.2192 453.207 76.967 453.207 80.5405V97.7477H447.171V64.3243H452.982V69.3694C454.183 67.6577 455.835 66.3363 457.937 65.4054C460.009 64.4745 462.366 64.009 465.009 64.009ZM490.099 97.7477V64.3243H496.18V97.7477H490.099ZM493.162 57.8829C491.961 57.8829 490.985 57.5075 490.234 56.7568C489.453 56.006 489.063 55.0901 489.063 54.009C489.063 52.8979 489.453 51.952 490.234 51.1712C490.985 50.3904 491.961 50 493.162 50C494.333 50 495.309 50.3754 496.09 51.1261C496.871 51.8468 497.261 52.7628 497.261 53.8739C497.261 55.015 496.871 55.976 496.09 56.7568C495.309 57.5075 494.333 57.8829 493.162 57.8829ZM519.874 64.009C524.499 64.009 528.042 65.1501 530.505 67.4324C532.967 69.6847 534.198 73.0631 534.198 77.5676V97.7477H528.478V93.3333C527.457 94.8949 526.015 96.0811 524.153 96.8919C522.261 97.7327 520.039 98.1532 517.487 98.1532C513.733 98.1532 510.745 97.2372 508.523 95.4054C506.27 93.6036 505.144 91.2312 505.144 88.2883C505.144 85.3453 506.21 82.988 508.342 81.2162C510.475 79.4144 513.883 78.5135 518.568 78.5135H528.162V77.3423C528.162 74.7297 527.396 72.7327 525.865 71.3513C524.363 69.9399 522.141 69.2342 519.198 69.2342C517.216 69.2342 515.279 69.5646 513.387 70.2252C511.496 70.8859 509.904 71.7568 508.613 72.8378L506.09 68.2883C507.802 66.9069 509.859 65.8559 512.261 65.1351C514.664 64.3844 517.201 64.009 519.874 64.009ZM518.478 93.4685C520.79 93.4685 522.787 92.958 524.468 91.9369C526.15 90.8859 527.381 89.4144 528.162 87.5225V82.8829H518.793C513.688 82.8829 511.135 84.6096 511.135 88.0631C511.135 89.7447 511.781 91.0661 513.072 92.027C514.363 92.988 516.165 93.4685 518.478 93.4685Z" fill="white"/>
<path d="M10.6889 127.372H65.9333V137.417H50.8667C50.2007 137.417 49.562 137.681 49.091 138.152C48.6201 138.623 48.3555 139.262 48.3555 139.928C48.3555 140.594 48.6201 141.232 49.091 141.703C49.562 142.174 50.2007 142.439 50.8667 142.439H111.133C111.799 142.439 112.438 142.174 112.909 141.703C113.38 141.232 113.644 140.594 113.644 139.928C113.644 139.262 113.38 138.623 112.909 138.152C112.438 137.681 111.799 137.417 111.133 137.417H96.0667V127.372H151.311C156.858 127.372 161.356 122.885 161.356 117.35V41.9706C161.356 36.4361 156.858 31.95 151.311 31.95H107.367V48.2722C107.367 52.4256 103.987 55.8055 99.8333 55.8055H106.235C112.006 55.8055 115.043 60.4159 113.015 66.1036L109.617 75.6408C107.59 81.3285 106.415 85.9389 100.644 85.9389H72.3831L73.9048 90.9611H107.367C108.033 90.9611 108.671 91.2257 109.142 91.6966C109.613 92.1675 109.878 92.8062 109.878 93.4722C109.878 94.1382 109.613 94.7769 109.142 95.2478C108.671 95.7188 108.033 95.9833 107.367 95.9833H70.1784L56.4828 50.7833H47.1C46.434 50.7833 45.7953 50.5188 45.3244 50.0478C44.8534 49.5769 44.5889 48.9382 44.5889 48.2722C44.5889 47.6062 44.8534 46.9675 45.3244 46.4966C45.7953 46.0257 46.434 45.7611 47.1 45.7611H60.2093L63.2527 55.8055H69.7C65.5466 55.8055 62.1667 52.4256 62.1667 48.2722V31.95H10.6889C5.14184 31.95 0.64444 36.4361 0.64444 41.9706V117.349C0.64444 122.885 5.14184 127.372 10.6889 127.372ZM100.147 101.006C102.921 101.006 105.169 103.259 105.169 106.03C105.169 108.796 102.921 111.05 100.147 111.05C97.3737 111.05 95.125 108.796 95.125 106.03C95.1253 104.698 95.6545 103.421 96.5962 102.479C97.5379 101.536 98.8151 101.007 100.147 101.006ZM77.3375 101.006C80.1123 101.006 82.3598 103.259 82.3598 106.03C82.3584 107.362 81.8288 108.638 80.8872 109.579C79.9455 110.52 78.6689 111.049 77.3375 111.05C74.564 111.05 72.3153 108.796 72.3153 106.03C72.3156 104.698 72.8448 103.421 73.7865 102.479C74.7282 101.536 76.0054 101.007 77.3375 101.006ZM70.9555 127.372H91.0444V137.417H70.9555V127.372Z" fill="#DE6987"/>
<path d="M92.3 48.2722V43.25C92.3 47.4034 88.92 50.7833 84.7667 50.7833C80.6133 50.7833 77.2333 47.4034 77.2333 43.25V48.2722C77.2333 52.4256 73.8534 55.8055 69.7 55.8055H99.8333C95.68 55.8055 92.3 52.4256 92.3 48.2722Z" fill="#DE6987"/>
<path d="M82.2555 3.07221V43.25C82.2555 43.916 82.5201 44.5547 82.991 45.0256C83.4619 45.4965 84.1007 45.7611 84.7667 45.7611C85.4326 45.7611 86.0714 45.4965 86.5423 45.0256C87.0132 44.5547 87.2778 43.916 87.2778 43.25V3.07221C87.2778 2.40622 87.0132 1.76751 86.5423 1.29658C86.0714 0.825659 85.4326 0.561096 84.7667 0.561096C84.1007 0.561096 83.4619 0.825659 82.991 1.29658C82.5201 1.76751 82.2555 2.40622 82.2555 3.07221ZM97.3222 18.1389V48.2722C97.3222 48.9382 97.5868 49.5769 98.0577 50.0478C98.5286 50.5188 99.1673 50.7833 99.8333 50.7833C100.499 50.7833 101.138 50.5188 101.609 50.0478C102.08 49.5769 102.344 48.9382 102.344 48.2722V18.1389C102.344 17.4729 102.08 16.8342 101.609 16.3633C101.138 15.8923 100.499 15.6278 99.8333 15.6278C99.1673 15.6278 98.5286 15.8923 98.0577 16.3633C97.5868 16.8342 97.3222 17.4729 97.3222 18.1389ZM67.1889 18.1389V48.2722C67.1889 48.9382 67.4534 49.5769 67.9244 50.0478C68.3953 50.5188 69.034 50.7833 69.7 50.7833C70.366 50.7833 71.0047 50.5188 71.4756 50.0478C71.9465 49.5769 72.2111 48.9382 72.2111 48.2722V18.1389C72.2111 17.4729 71.9465 16.8342 71.4756 16.3633C71.0047 15.8923 70.366 15.6278 69.7 15.6278C69.034 15.6278 68.3953 15.8923 67.9244 16.3633C67.4534 16.8342 67.1889 17.4729 67.1889 18.1389Z" fill="#DE6987"/>
</g>
<defs>
<clipPath id="clip0_4_95">
<rect width="534" height="142" fill="white"/>
</clipPath>
</defs>
</svg>
