<svg viewBox="0 0 700 700" fill="none" xmlns="http://www.w3.org/2000/svg">
  <circle cx="350" cy="350" r="350" fill="#1E1E1E" />
  <path d="M401.447 95.3815C407.331 107.992 394.863 111.564 380.58 118.323C366.297 125.082 355.608 132.469 349.724 119.858C343.84 107.248 339.066 82.2183 359.271 72.6564C380.173 62.7652 395.563 82.7711 401.447 95.3815Z" fill="#5D504B" />
  <path d="M372.306 120.181C382.925 120.181 391.534 111.512 391.534 100.818C391.534 90.1233 382.925 81.4538 372.306 81.4538C361.687 81.4538 353.078 90.1233 353.078 100.818C353.078 111.512 361.687 120.181 372.306 120.181Z" fill="#FFB8B8" />
  <path d="M467.565 186.692C466.899 185.817 466.234 184.957 465.56 184.122C464.691 183.034 463.817 181.98 462.938 180.96C452.972 169.379 442.372 162.086 430.7 161.306H430.684L430.512 161.29L407.253 184.122L399.346 191.879L399.518 192.305L403.785 203.004H478.54C475.172 197.374 471.508 191.929 467.565 186.692Z" fill="#2F2E41" />
  <path d="M351.397 108.613L358.28 105.356L357.321 95.3567L361.924 103.632L365.213 102.075L364.654 96.242L367.339 101.069L391.783 89.5014C389.487 84.5811 385.345 80.7808 380.267 78.9365C375.188 77.0922 369.591 77.3551 364.705 79.6671L361.162 81.3436C356.276 83.6557 352.503 87.8277 350.671 92.9417C348.84 98.0558 349.101 103.693 351.397 108.613Z" fill="#5D504B" />
  <path d="M510.7 460.097H109.218C105.794 460.093 102.51 458.721 100.089 456.282C97.667 453.843 96.3048 450.537 96.301 447.088V204.142C96.3038 201.615 97.3016 199.193 99.0757 197.406C100.85 195.62 103.255 194.615 105.764 194.612H513.99C516.543 194.615 518.99 195.637 520.795 197.455C522.599 199.272 523.615 201.736 523.617 204.307V447.088C523.613 450.537 522.251 453.843 519.83 456.282C517.408 458.721 514.125 460.093 510.7 460.097Z" fill="#F2F2F2" />
  <path d="M121.744 447.088H498.174C501.496 447.088 504.682 445.759 507.031 443.394C509.38 441.028 510.7 437.819 510.7 434.474V228.272C510.7 224.926 509.38 221.718 507.031 219.352C504.682 216.986 501.496 215.657 498.174 215.657H121.744C118.422 215.657 115.236 216.986 112.887 219.352C110.538 221.718 109.218 224.926 109.218 228.272V434.474C109.218 437.819 110.538 441.028 112.887 443.394C115.236 445.759 118.422 447.088 121.744 447.088Z" fill="white" />
  <path d="M523.437 203.398H96.1197V196.775C96.1246 193.315 97.4924 189.998 99.9228 187.552C102.353 185.106 105.648 183.73 109.084 183.727H510.473C513.909 183.73 517.204 185.106 519.634 187.552C522.065 189.998 523.433 193.315 523.437 196.775V203.398Z" fill="#DE6987" />
  <path d="M119.68 196.959C121.532 196.959 123.034 195.447 123.034 193.582C123.034 191.717 121.532 190.205 119.68 190.205C117.828 190.205 116.327 191.717 116.327 193.582C116.327 195.447 117.828 196.959 119.68 196.959Z" fill="white" />
  <path d="M132.409 196.959C134.261 196.959 135.762 195.447 135.762 193.582C135.762 191.717 134.261 190.205 132.409 190.205C130.557 190.205 129.055 191.717 129.055 193.582C129.055 195.447 130.557 196.959 132.409 196.959Z" fill="white" />
  <path d="M145.137 196.959C146.989 196.959 148.49 195.447 148.49 193.582C148.49 191.717 146.989 190.205 145.137 190.205C143.285 190.205 141.784 191.717 141.784 193.582C141.784 195.447 143.285 196.959 145.137 196.959Z" fill="white" />
  <path d="M321.705 402.37H288.042C286.07 402.367 284.18 401.578 282.785 400.174C281.391 398.769 280.607 396.866 280.605 394.88V360.979C280.607 358.993 281.391 357.09 282.785 355.686C284.18 354.281 286.07 353.492 288.042 353.489H321.705C323.677 353.492 325.567 354.281 326.961 355.686C328.355 357.09 329.14 358.993 329.142 360.979V394.88C329.14 396.866 328.355 398.769 326.961 400.174C325.567 401.578 323.677 402.367 321.705 402.37ZM288.042 355.066C286.485 355.068 284.993 355.691 283.892 356.8C282.791 357.908 282.172 359.411 282.17 360.979V394.88C282.172 396.448 282.791 397.951 283.892 399.059C284.993 400.168 286.485 400.791 288.042 400.793H321.705C323.261 400.791 324.754 400.168 325.855 399.059C326.955 397.951 327.575 396.448 327.576 394.88V360.979C327.575 359.411 326.955 357.908 325.855 356.8C324.754 355.691 323.261 355.068 321.705 355.066H288.042Z" fill="#CCCCCC" />
  <path d="M315.05 392.909H294.696C294.073 392.908 293.476 392.659 293.036 392.215C292.596 391.772 292.348 391.171 292.347 390.544V365.315C292.348 364.688 292.596 364.087 293.036 363.644C293.476 363.2 294.073 362.951 294.696 362.95H309.445C309.98 362.951 310.499 363.135 310.916 363.472L316.521 368.008C316.796 368.229 317.018 368.51 317.169 368.829C317.321 369.148 317.4 369.498 317.399 369.852V390.544C317.398 391.171 317.151 391.772 316.71 392.215C316.27 392.659 315.673 392.908 315.05 392.909ZM294.696 364.527C294.489 364.527 294.29 364.61 294.143 364.758C293.996 364.906 293.913 365.106 293.913 365.315V390.544C293.913 390.753 293.996 390.953 294.143 391.101C294.29 391.249 294.489 391.332 294.696 391.332H315.05C315.258 391.332 315.457 391.249 315.604 391.101C315.751 390.953 315.833 390.753 315.833 390.544V369.852C315.834 369.734 315.807 369.617 315.757 369.511C315.706 369.404 315.632 369.311 315.541 369.237L309.935 364.7C309.796 364.588 309.623 364.527 309.445 364.527H294.696Z" fill="#CCCCCC" />
  <path d="M311.136 373.988H298.61C298.403 373.988 298.204 373.905 298.057 373.757C297.91 373.609 297.827 373.408 297.827 373.199C297.827 372.99 297.91 372.79 298.057 372.642C298.204 372.494 298.403 372.411 298.61 372.411H311.136C311.344 372.411 311.543 372.494 311.69 372.642C311.837 372.79 311.919 372.99 311.919 373.199C311.919 373.408 311.837 373.609 311.69 373.757C311.543 373.905 311.344 373.988 311.136 373.988Z" fill="#CCCCCC" />
  <path d="M311.136 378.718H298.61C298.403 378.718 298.204 378.635 298.057 378.487C297.91 378.339 297.827 378.139 297.827 377.93C297.827 377.72 297.91 377.52 298.057 377.372C298.204 377.224 298.403 377.141 298.61 377.141H311.136C311.344 377.141 311.543 377.224 311.69 377.372C311.837 377.52 311.919 377.72 311.919 377.93C311.919 378.139 311.837 378.339 311.69 378.487C311.543 378.635 311.344 378.718 311.136 378.718Z" fill="#CCCCCC" />
  <path d="M311.136 383.448H298.61C298.403 383.448 298.204 383.365 298.057 383.217C297.91 383.069 297.827 382.869 297.827 382.66C297.827 382.451 297.91 382.25 298.057 382.102C298.204 381.955 298.403 381.871 298.61 381.871H311.136C311.344 381.871 311.543 381.955 311.69 382.102C311.837 382.25 311.919 382.451 311.919 382.66C311.919 382.869 311.837 383.069 311.69 383.217C311.543 383.365 311.344 383.448 311.136 383.448Z" fill="#CCCCCC" />
  <path d="M401.557 402.37H367.894C365.922 402.367 364.032 401.578 362.637 400.174C361.243 398.769 360.459 396.866 360.457 394.88V360.979C360.459 358.993 361.243 357.09 362.637 355.686C364.032 354.281 365.922 353.492 367.894 353.489H401.557C403.529 353.492 405.419 354.281 406.813 355.686C408.207 357.09 408.992 358.993 408.994 360.979V394.88C408.992 396.866 408.207 398.769 406.813 400.174C405.419 401.578 403.529 402.367 401.557 402.37ZM367.894 355.066C366.337 355.068 364.845 355.691 363.744 356.8C362.643 357.908 362.024 359.411 362.022 360.979V394.88C362.024 396.448 362.643 397.951 363.744 399.059C364.845 400.168 366.337 400.791 367.894 400.793H401.557C403.113 400.791 404.606 400.168 405.707 399.059C406.807 397.951 407.427 396.448 407.428 394.88V360.979C407.427 359.411 406.807 357.908 405.707 356.8C404.606 355.691 403.113 355.068 401.557 355.066H367.894Z" fill="#CCCCCC" />
  <path d="M395.685 386.602H373.765C373.142 386.601 372.545 386.352 372.105 385.908C371.665 385.465 371.417 384.864 371.417 384.237V371.622C371.417 370.995 371.665 370.394 372.105 369.951C372.545 369.507 373.142 369.258 373.765 369.257H395.685C396.308 369.258 396.905 369.507 397.345 369.951C397.786 370.394 398.033 370.995 398.034 371.622V384.237C398.033 384.864 397.786 385.465 397.345 385.908C396.905 386.352 396.308 386.601 395.685 386.602ZM373.765 370.834C373.558 370.834 373.359 370.917 373.212 371.065C373.065 371.213 372.982 371.413 372.982 371.622V384.237C372.982 384.446 373.065 384.646 373.212 384.794C373.359 384.942 373.558 385.025 373.765 385.025H395.685C395.893 385.025 396.092 384.942 396.239 384.794C396.385 384.646 396.468 384.446 396.468 384.237V371.622C396.468 371.413 396.385 371.213 396.239 371.065C396.092 370.917 395.893 370.834 395.685 370.834H373.765Z" fill="#CCCCCC" />
  <path d="M384.725 380.009C384.285 380.01 383.854 379.886 383.481 379.653L371.784 372.291C371.609 372.18 371.484 372.003 371.437 371.8C371.391 371.596 371.427 371.382 371.537 371.205C371.647 371.028 371.822 370.902 372.024 370.855C372.226 370.808 372.438 370.843 372.615 370.954L384.311 378.315C384.435 378.393 384.579 378.434 384.726 378.434C384.872 378.434 385.016 378.393 385.14 378.315L396.836 370.954C397.012 370.843 397.224 370.808 397.426 370.855C397.628 370.902 397.804 371.028 397.914 371.205C398.024 371.382 398.059 371.596 398.013 371.8C397.966 372.003 397.842 372.18 397.666 372.291L385.971 379.653C385.597 379.887 385.165 380.01 384.725 380.009Z" fill="#CCCCCC" />
  <path d="M241.853 402.37H208.19C206.218 402.367 204.328 401.578 202.933 400.174C201.539 398.769 200.755 396.866 200.753 394.88V360.979C200.755 358.993 201.539 357.09 202.933 355.686C204.328 354.281 206.218 353.492 208.19 353.489H241.853C243.825 353.492 245.715 354.281 247.109 355.686C248.503 357.09 249.288 358.993 249.29 360.979V394.88C249.288 396.866 248.503 398.769 247.109 400.174C245.715 401.578 243.825 402.367 241.853 402.37ZM208.19 355.066C206.633 355.068 205.141 355.691 204.04 356.8C202.939 357.908 202.32 359.411 202.318 360.979V394.88C202.32 396.448 202.939 397.951 204.04 399.059C205.141 400.168 206.633 400.791 208.19 400.793H241.853C243.409 400.791 244.902 400.168 246.003 399.059C247.103 397.951 247.723 396.448 247.724 394.88V360.979C247.723 359.411 247.103 357.908 246.003 356.8C244.902 355.691 243.409 355.068 241.853 355.066H208.19Z" fill="#CCCCCC" />
  <path d="M235.981 386.602H214.061C213.439 386.601 212.842 386.352 212.401 385.908C211.961 385.465 211.713 384.864 211.713 384.237V371.622C211.713 370.995 211.961 370.394 212.401 369.951C212.842 369.507 213.439 369.258 214.061 369.257H235.981C236.604 369.258 237.201 369.507 237.641 369.951C238.082 370.394 238.329 370.995 238.33 371.622V384.237C238.329 384.864 238.082 385.465 237.641 385.908C237.201 386.352 236.604 386.601 235.981 386.602ZM214.061 370.834C213.854 370.834 213.655 370.917 213.508 371.065C213.361 371.213 213.279 371.413 213.278 371.622V384.237C213.279 384.446 213.361 384.646 213.508 384.794C213.655 384.942 213.854 385.025 214.061 385.025H235.981C236.189 385.025 236.388 384.942 236.535 384.794C236.681 384.646 236.764 384.446 236.764 384.237V371.622C236.764 371.413 236.681 371.213 236.535 371.065C236.388 370.917 236.189 370.834 235.981 370.834H214.061Z" fill="#CCCCCC" />
  <path d="M232.507 386.602H216.753C216.478 386.602 216.208 386.529 215.97 386.391C215.732 386.252 215.534 386.053 215.397 385.814C215.259 385.574 215.187 385.302 215.187 385.025C215.187 384.748 215.259 384.476 215.397 384.237L220.142 375.959C220.28 375.719 220.477 375.52 220.715 375.381C220.953 375.243 221.223 375.17 221.498 375.17C221.773 375.17 222.043 375.243 222.281 375.381C222.519 375.52 222.717 375.719 222.854 375.959L225.919 381.305L227.695 378.207C227.832 377.968 228.03 377.769 228.268 377.63C228.506 377.492 228.776 377.419 229.051 377.419C229.326 377.419 229.596 377.492 229.834 377.63C230.072 377.769 230.269 377.968 230.407 378.207L233.863 384.237C234.001 384.476 234.073 384.748 234.073 385.025C234.073 385.302 234.001 385.574 233.863 385.814C233.726 386.053 233.528 386.252 233.29 386.391C233.052 386.529 232.782 386.602 232.507 386.602ZM232.507 385.025L229.051 378.996L226.597 383.276C226.529 383.396 226.43 383.495 226.311 383.564C226.192 383.634 226.057 383.67 225.919 383.67C225.782 383.67 225.647 383.634 225.528 383.564C225.409 383.495 225.31 383.396 225.241 383.276L221.498 376.747L216.753 385.025H232.507Z" fill="#CCCCCC" />
  <path d="M233.633 375.564C234.497 375.564 235.198 374.858 235.198 373.987C235.198 373.117 234.497 372.411 233.633 372.411C232.768 372.411 232.067 373.117 232.067 373.987C232.067 374.858 232.768 375.564 233.633 375.564Z" fill="#CCCCCC" />
  <path d="M608.009 580.996L598.411 580.996L593.845 543.714L608.011 543.715L608.009 580.996Z" fill="#FFB8B8" />
  <path d="M610.457 590.366L579.51 590.364V589.97C579.51 588.377 579.821 586.8 580.427 585.328C581.032 583.856 581.919 582.519 583.038 581.393C584.156 580.266 585.484 579.373 586.946 578.763C588.407 578.153 589.973 577.84 591.555 577.84H591.556L610.457 577.841L610.457 590.366Z" fill="#2F2E41" />
  <path d="M647.152 580.996L637.554 580.996L632.989 543.714L647.154 543.715L647.152 580.996Z" fill="#FFB8B8" />
  <path d="M649.6 590.366L618.653 590.364V589.97C618.653 588.377 618.964 586.8 619.57 585.328C620.175 583.856 621.062 582.519 622.181 581.393C623.299 580.266 624.627 579.373 626.089 578.763C627.55 578.153 629.116 577.84 630.698 577.84H630.699L649.6 577.841L649.6 590.366Z" fill="#2F2E41" />
  <path d="M644.275 564.835L635.386 562.111C634.723 561.909 634.135 561.515 633.694 560.977C633.253 560.44 632.98 559.783 632.908 559.09L624.62 479.993C624.614 479.898 624.572 479.808 624.502 479.742C624.432 479.677 624.341 479.641 624.246 479.641C624.15 479.631 624.055 479.66 623.981 479.72C623.906 479.78 623.858 479.868 623.846 479.963L609.965 556.594C609.881 557.059 609.705 557.502 609.448 557.898C609.191 558.294 608.859 558.634 608.47 558.898C608.081 559.162 607.643 559.346 607.183 559.438C606.722 559.529 606.248 559.527 605.789 559.432L594.428 557.075C593.595 556.9 592.853 556.428 592.338 555.745C591.823 555.063 591.569 554.216 591.624 553.361L600.068 427.76L657.325 421.538L648.817 561.656C648.761 562.557 648.368 563.403 647.716 564.022C647.064 564.641 646.202 564.987 645.306 564.989C644.957 564.989 644.609 564.937 644.275 564.835Z" fill="#CCCCCC" />
  <path d="M644.221 318.381C654.84 318.381 663.449 309.712 663.449 299.018C663.449 288.323 654.84 279.654 644.221 279.654C633.601 279.654 624.993 288.323 624.993 299.018C624.993 309.712 633.601 318.381 644.221 318.381Z" fill="#FFB8B8" />
  <path d="M599.98 428.497L612.394 349.776C613.055 345.59 614.592 341.594 616.905 338.054C619.218 334.513 622.253 331.509 625.809 329.242C629.364 326.975 633.358 325.496 637.525 324.904C641.692 324.312 645.937 324.62 649.976 325.809C657.039 327.866 663.086 332.501 666.937 338.808C670.788 345.115 672.165 352.641 670.801 359.917L657.812 430.219L599.98 428.497Z" fill="#A34857" />
  <path d="M649.529 442.583C650.489 441.944 651.299 441.101 651.901 440.113C652.503 439.126 652.882 438.017 653.013 436.865C653.143 435.714 653.021 434.547 652.655 433.449C652.29 432.35 651.689 431.345 650.896 430.505L663.732 405.472L649.277 407.026L639.304 430.559C637.991 431.994 637.246 433.864 637.211 435.815C637.176 437.766 637.853 439.662 639.113 441.145C640.373 442.627 642.13 443.592 644.05 443.857C645.969 444.122 647.919 443.669 649.529 442.583Z" fill="#FFB8B8" />
  <path d="M652.277 426.089C651.567 425.988 650.905 425.672 650.378 425.182L645.467 420.612C644.936 420.116 644.57 419.468 644.417 418.755C644.264 418.042 644.332 417.3 644.612 416.627L654.427 393.198L653.035 346.903C653.235 345.415 653.724 343.981 654.475 342.684C655.226 341.386 656.223 340.25 657.41 339.341C658.597 338.432 659.95 337.767 661.392 337.385C662.834 337.003 664.337 336.911 665.815 337.114C667.292 337.316 668.715 337.811 670.003 338.568C671.291 339.325 672.418 340.331 673.32 341.527C674.221 342.723 674.88 344.086 675.258 345.539C675.637 346.992 675.727 348.505 675.524 349.993L677.905 379.094C678.629 387.926 676.142 396.723 670.908 403.847L655.601 424.686C655.307 425.087 654.932 425.42 654.501 425.665C654.07 425.91 653.592 426.061 653.1 426.108C652.826 426.135 652.55 426.128 652.277 426.089Z" fill="#A34857" />
  <path d="M533.493 288.468C533.703 289.607 534.158 290.687 534.826 291.63C535.495 292.573 536.361 293.358 537.363 293.928C538.365 294.497 539.479 294.839 540.626 294.929C541.774 295.018 542.927 294.853 544.004 294.445L561.889 316.109L566.105 302.097L548.474 283.673C547.674 281.896 546.254 280.477 544.484 279.683C542.714 278.89 540.716 278.778 538.869 279.369C537.023 279.96 535.455 281.213 534.464 282.89C533.474 284.566 533.128 286.551 533.493 288.468Z" fill="#FFB8B8" />
  <path d="M547.503 297.447C547.872 296.828 548.42 296.337 549.073 296.039L555.167 293.267C555.827 292.968 556.563 292.881 557.274 293.017C557.986 293.153 558.638 293.506 559.144 294.028L576.741 312.265L619.615 329.023C620.899 329.789 622.019 330.802 622.913 332.004C623.807 333.206 624.457 334.574 624.826 336.03C625.195 337.485 625.276 338.999 625.063 340.486C624.85 341.972 624.349 343.402 623.587 344.693C622.825 345.985 621.818 347.112 620.623 348.011C619.428 348.91 618.069 349.563 616.624 349.933C615.178 350.303 613.675 350.382 612.199 350.166C610.723 349.95 609.303 349.443 608.022 348.675L580.484 339.536C572.125 336.764 565.051 331.028 560.577 323.396L547.49 301.077C547.239 300.647 547.08 300.17 547.024 299.674C546.968 299.179 547.016 298.678 547.165 298.202C547.248 297.938 547.361 297.685 547.503 297.447Z" fill="#A34857" />
  <path opacity="0.1" d="M659.817 366.161L659.034 391.39L644.612 416.627L656.654 388.503L659.817 366.161Z" fill="black" />
  <path d="M642.018 302.657C640.81 302.815 639.586 302.526 638.574 301.844C637.562 301.162 636.83 300.134 636.514 298.949C636.209 297.586 635.541 296.332 634.583 295.322C633.624 294.312 632.411 293.583 631.072 293.215C627.545 292.403 623.234 294.075 620.649 291.384C620.096 290.77 619.696 290.032 619.481 289.231C619.267 288.43 619.245 287.589 619.416 286.778C619.892 284.163 621.75 282.187 623.771 280.607C628.026 277.297 633.174 275.359 638.541 275.048C641.319 274.967 644.099 275.106 646.856 275.465C649.742 275.648 652.596 276.174 655.36 277.03C658.509 278.227 661.308 280.203 663.497 282.778C665.687 285.352 667.197 288.44 667.888 291.757C668.519 295.085 668.422 298.511 667.603 301.797C666.784 305.083 665.263 308.149 663.146 310.782C660.611 313.96 657.343 316.466 653.626 318.081C652.74 318.502 651.726 318.554 650.802 318.225C648.487 317.298 648.866 314.41 649.921 312.484C651.051 310.422 652.789 308.426 651.881 305.918C651.425 304.754 650.551 303.807 649.432 303.264C647.131 302.082 644.557 302.361 642.082 302.649L642.018 302.657Z" fill="#323232" />
  <path d="M527.068 313.592H289.077C285.653 313.588 282.369 312.216 279.948 309.777C277.526 307.339 276.164 304.032 276.16 300.583V249.338C276.164 245.889 277.526 242.582 279.948 240.144C282.369 237.705 285.653 236.333 289.077 236.329H527.068C530.492 236.333 533.775 237.705 536.197 240.144C538.619 242.582 539.981 245.889 539.985 249.338V300.583C539.981 304.032 538.619 307.338 536.197 309.777C533.775 312.216 530.492 313.588 527.068 313.592Z" fill="white" />
  <path d="M527.067 313.986H289.077C285.549 313.982 282.166 312.569 279.671 310.056C277.176 307.543 275.773 304.137 275.769 300.583V249.338C275.773 245.784 277.176 242.378 279.671 239.865C282.166 237.352 285.549 235.939 289.077 235.935H527.067C530.596 235.939 533.979 237.352 536.474 239.865C538.969 242.378 540.372 245.784 540.376 249.338V300.583C540.372 304.137 538.969 307.543 536.474 310.056C533.979 312.569 530.596 313.982 527.067 313.986ZM289.077 237.512C285.964 237.515 282.979 238.763 280.778 240.98C278.576 243.197 277.338 246.202 277.334 249.338V300.583C277.338 303.719 278.576 306.725 280.778 308.942C282.979 311.159 285.964 312.406 289.077 312.409H527.067C530.181 312.406 533.166 311.159 535.367 308.942C537.569 306.725 538.807 303.719 538.81 300.583V249.338C538.807 246.202 537.569 243.197 535.367 240.98C533.166 238.763 530.181 237.515 527.067 237.512H289.077Z" fill="#3F3D56" />
  <path d="M498.102 300.977H318.043C314.619 300.974 311.335 299.602 308.914 297.163C306.492 294.724 305.13 291.418 305.126 287.969V261.164C305.13 257.715 306.492 254.408 308.914 251.97C311.335 249.531 314.619 248.159 318.043 248.155H498.102C501.526 248.159 504.81 249.531 507.231 251.97C509.653 254.408 511.015 257.715 511.019 261.164V287.969C511.015 291.418 509.653 294.724 507.231 297.163C504.81 299.602 501.526 300.974 498.102 300.977Z" fill="#F2F2F2" />
  <path d="M356.791 286.53C365.322 286.53 372.239 279.565 372.239 270.973C372.239 262.381 365.322 255.416 356.791 255.416C348.259 255.416 341.343 262.381 341.343 270.973C341.343 279.565 348.259 286.53 356.791 286.53Z" fill="#FFAF65" />
  <path d="M486.912 299.408L465.107 280.991L443.679 262.892C443.114 262.415 442.399 262.154 441.661 262.155C440.923 262.156 440.209 262.42 439.645 262.9L418.286 281.082L413.069 285.523L405.203 278.879L381.296 258.688C380.731 258.21 380.016 257.949 379.278 257.95C378.54 257.952 377.826 258.216 377.263 258.695L353.434 278.979L329.23 299.583C329.108 299.687 329.02 299.827 328.979 299.983C328.938 300.14 328.945 300.305 329.001 300.457C329.056 300.609 329.156 300.739 329.288 300.832C329.42 300.924 329.577 300.974 329.737 300.973L379.36 300.877L395.068 300.847L394.914 300.977L441.735 300.887L486.411 300.8C486.571 300.8 486.728 300.75 486.859 300.657C486.991 300.564 487.09 300.432 487.145 300.28C487.2 300.128 487.207 299.963 487.165 299.807C487.124 299.651 487.035 299.511 486.912 299.408Z" fill="#3F3D56" />
  <path d="M691.342 591.5H541.033C540.825 591.5 540.626 591.417 540.479 591.269C540.332 591.121 540.25 590.921 540.25 590.712C540.25 590.503 540.332 590.302 540.479 590.154C540.626 590.006 540.825 589.923 541.033 589.923H691.342C691.55 589.923 691.749 590.006 691.896 590.154C692.043 590.302 692.125 590.503 692.125 590.712C692.125 590.921 692.043 591.121 691.896 591.269C691.749 591.417 691.55 591.5 691.342 591.5Z" fill="#CCCCCC" />
  <path d="M479.018 173.999C478.392 172.975 477.567 172.091 476.591 171.4C475.615 170.709 474.51 170.225 473.342 169.978C472.914 169.887 472.48 169.832 472.043 169.812L412.396 116.107C411.224 114.894 409.662 114.142 407.989 113.986C407.659 113.948 407.326 113.937 406.994 113.955C405.618 114.018 404.29 114.483 403.172 115.294C402.055 116.105 401.196 117.226 400.701 118.521C400.206 119.816 400.096 121.228 400.385 122.584C400.674 123.941 401.35 125.183 402.329 126.159L425.165 146.208L462.664 179.123C462.694 179.743 462.786 180.358 462.938 180.96C463.387 182.703 464.351 184.268 465.703 185.446C467.055 186.625 468.731 187.362 470.508 187.559C472.129 187.75 473.771 187.476 475.244 186.771C476.413 186.22 477.449 185.421 478.282 184.429C478.368 184.327 478.446 184.232 478.525 184.122C479.619 182.685 480.253 180.946 480.341 179.138C480.429 177.329 479.968 175.536 479.018 173.999Z" fill="#FFB8B8" />
  <path d="M376.995 225.757L376.439 203.004L375.97 184.122L375.649 170.908L375.014 145.151C374.889 143.772 374.368 142.46 373.514 141.374C372.66 140.289 371.511 139.477 370.207 139.038C368.903 138.599 367.5 138.552 366.17 138.903C364.839 139.253 363.639 139.986 362.716 141.012C362.498 141.247 362.302 141.5 362.128 141.769C361.165 143.159 360.731 144.853 360.907 146.539L362.301 184.122L362.998 203.004L363.89 227.089C363.633 227.443 363.4 227.814 363.193 228.201C362.637 229.264 362.3 230.43 362.205 231.628C362.109 232.826 362.256 234.031 362.638 235.17C363.035 236.364 363.68 237.461 364.529 238.386C365.377 239.311 366.411 240.045 367.562 240.539C368.713 241.033 369.955 241.276 371.206 241.251C372.456 241.227 373.688 240.936 374.819 240.397C376.132 239.772 377.273 238.83 378.139 237.655C379.006 236.48 379.571 235.109 379.786 233.662C380.002 232.215 379.86 230.736 379.373 229.358C378.886 227.979 378.069 226.742 376.995 225.757Z" fill="#FFB8B8" />
  <path d="M430.7 161.306L425.165 146.208L416.209 121.752C415.563 119.972 414.527 118.362 413.178 117.041C411.83 115.72 410.203 114.722 408.419 114.12C408.278 114.073 408.13 114.026 407.989 113.986C406.261 113.458 404.439 113.313 402.65 113.56C400.861 113.808 399.146 114.443 397.624 115.421L367.46 134.689C364.697 136.45 362.723 139.223 361.953 142.423C361.183 145.622 361.678 148.998 363.334 151.837C367.106 158.406 371.217 164.771 375.649 170.908C379.164 175.725 385.708 176.238 386.844 184.122H409.085L431.6 163.765L430.7 161.306Z" fill="#CCCCCC" />
  <path d="M85.3229 345.822C95.3415 345.822 103.463 337.643 103.463 327.554C103.463 317.464 95.3415 309.285 85.3229 309.285C75.3044 309.285 67.1827 317.464 67.1827 327.554C67.1827 337.643 75.3044 345.822 85.3229 345.822Z" fill="#A0616A" />
  <path d="M129.857 314.979C130.036 315.122 130.209 315.274 130.377 315.434C131.211 316.225 131.869 317.184 132.308 318.248C132.748 319.313 132.959 320.459 132.928 321.612C132.898 322.764 132.625 323.897 132.129 324.936C131.633 325.975 130.925 326.897 130.051 327.642C129.847 327.814 129.634 327.975 129.414 328.125L130.641 369.867C130.676 371.233 130.273 372.574 129.491 373.692C128.709 374.809 127.59 375.643 126.3 376.069L126.225 376.085L92.5713 379.694C91.6563 379.792 90.7311 379.707 89.8492 379.443C88.9672 379.179 88.1459 378.741 87.4328 378.156C86.7196 377.57 86.1287 376.848 85.6941 376.031C85.2596 375.215 84.99 374.319 84.9009 373.397C84.8119 372.475 84.9052 371.544 85.1754 370.658C85.4455 369.772 85.8873 368.949 86.4751 368.236C87.0629 367.523 87.7851 366.935 88.6 366.505C89.415 366.074 90.3065 365.811 91.223 365.73L115.213 363.602L119.362 327.453C119.091 327.211 118.837 326.951 118.602 326.673C117.301 325.122 116.618 323.14 116.687 321.112C116.756 319.083 117.571 317.153 118.974 315.695C120.377 314.238 122.267 313.358 124.279 313.225C126.29 313.093 128.278 313.718 129.857 314.979Z" fill="#A0616A" />
  <path d="M115.2 581.804H124.255L128.562 546.631H115.198L115.2 581.804Z" fill="#A0616A" />
  <path d="M112.89 578.827L130.722 578.826C132.215 578.826 133.693 579.122 135.072 579.697C136.451 580.272 137.703 581.115 138.759 582.178C139.814 583.24 140.651 584.502 141.222 585.891C141.793 587.279 142.087 588.767 142.087 590.27V590.642L112.891 590.643L112.89 578.827Z" fill="#2F2E41" />
  <path d="M25.2002 569.196L32.9803 573.861L54.5505 545.859L43.0674 538.974L25.2002 569.196Z" fill="#A0616A" />
  <path d="M24.7281 565.448L40.05 574.635C41.3322 575.404 42.4522 576.42 43.3447 577.625C44.2371 578.829 44.8853 580.199 45.2521 581.656C45.6189 583.112 45.6972 584.628 45.4825 586.115C45.2678 587.602 44.7643 589.032 44.0008 590.324L43.8118 590.643L18.7254 575.601L24.7281 565.448Z" fill="#2F2E41" />
  <path d="M126.391 569.381H116.252C115.431 569.382 114.639 569.077 114.028 568.524C113.418 567.971 113.033 567.21 112.947 566.387L102.725 469.622C102.699 469.379 102.595 469.15 102.427 468.973C102.26 468.795 102.039 468.678 101.799 468.639C101.559 468.6 101.313 468.642 101.098 468.758C100.884 468.874 100.714 469.058 100.614 469.281L82.173 510.402L49.5248 564.015C49.1023 564.702 48.448 565.213 47.6819 565.455C46.9158 565.696 46.089 565.651 45.353 565.328L32.3103 559.549C31.8791 559.358 31.4931 559.077 31.178 558.724C30.8629 558.371 30.6259 557.955 30.4827 557.503C30.3395 557.051 30.2933 556.573 30.3473 556.102C30.4012 555.63 30.5541 555.176 30.7957 554.769L60.8083 504.16L70.0129 461.52C67.118 443.028 79.5287 415.536 79.6545 415.26L79.716 415.126L113.902 401.67L114.073 401.881C127.555 446.436 135.77 494.385 129.704 566.314C129.629 567.149 129.249 567.925 128.636 568.492C128.024 569.059 127.223 569.376 126.391 569.381Z" fill="#2F2E41" />
  <path d="M78.3387 419.631L78.1795 419.294C78.1034 419.133 70.502 402.987 64.6423 385.731C63.5161 382.394 63.0904 378.858 63.392 375.347C63.6937 371.835 64.7162 368.425 66.3947 365.333C68.0951 362.208 70.4213 359.473 73.2261 357.301C76.0308 355.129 79.2528 353.567 82.6882 352.715C88.652 351.275 94.9309 352.041 100.381 354.873C105.831 357.705 110.089 362.415 112.38 368.144C117.028 379.849 115.547 392.343 114.153 402.168L114.125 402.365L113.947 402.451L78.3387 419.631Z" fill="#48A394" />
  <path d="M107.317 317.234H78.5129V304.59C84.8352 302.06 91.0218 299.909 94.7616 304.59C98.0916 304.59 101.285 305.922 103.64 308.293C105.995 310.665 107.317 313.881 107.317 317.234Z" fill="#2F2E41" />
  <path d="M76.9182 302.358C59.6983 302.358 54.8784 324.095 54.8784 336.358C54.8784 343.197 57.9496 345.643 62.7756 346.471L64.4799 337.317L68.4718 346.865C69.8274 346.872 71.2515 346.845 72.728 346.818L74.0815 344.011L77.0996 346.767C89.1877 346.785 98.9576 348.56 98.9576 336.358C98.9576 324.095 94.7306 302.358 76.9182 302.358Z" fill="#2F2E41" />
  <path d="M157.217 591.5H6.90781C6.70018 591.5 6.50106 591.417 6.35424 591.269C6.20743 591.121 6.12495 590.921 6.12495 590.712C6.12495 590.503 6.20743 590.302 6.35424 590.154C6.50106 590.006 6.70018 589.923 6.90781 589.923H157.217C157.425 589.923 157.624 590.006 157.771 590.154C157.918 590.302 158 590.503 158 590.712C158 590.921 157.918 591.121 157.771 591.269C157.624 591.417 157.425 591.5 157.217 591.5Z" fill="#CCCCCC" />
  <path d="M160.044 332.119H126.381C124.409 332.117 122.518 331.327 121.124 329.923C119.73 328.519 118.946 326.615 118.943 324.629V290.728C118.946 288.743 119.73 286.839 121.124 285.435C122.518 284.031 124.409 283.241 126.381 283.239H160.044C162.015 283.241 163.906 284.031 165.3 285.435C166.694 286.839 167.479 288.743 167.481 290.728V324.629C167.479 326.615 166.694 328.519 165.3 329.923C163.906 331.327 162.015 332.117 160.044 332.119Z" fill="white" />
  <path d="M160.044 332.119H126.381C124.409 332.117 122.518 331.327 121.124 329.923C119.73 328.519 118.946 326.615 118.943 324.629V290.728C118.946 288.743 119.73 286.839 121.124 285.435C122.518 284.031 124.409 283.241 126.381 283.239H160.044C162.015 283.241 163.906 284.031 165.3 285.435C166.694 286.839 167.479 288.743 167.481 290.728V324.629C167.479 326.615 166.694 328.519 165.3 329.923C163.906 331.327 162.015 332.117 160.044 332.119ZM126.381 284.815C124.824 284.817 123.332 285.441 122.231 286.549C121.13 287.658 120.511 289.161 120.509 290.728V324.629C120.511 326.197 121.13 327.7 122.231 328.808C123.332 329.917 124.824 330.54 126.381 330.542H160.044C161.6 330.54 163.093 329.917 164.194 328.808C165.294 327.7 165.913 326.197 165.915 324.629V290.728C165.913 289.161 165.294 287.658 164.194 286.549C163.093 285.441 161.6 284.817 160.044 284.815H126.381Z" fill="#3F3D56" />
  <path d="M154.172 318.322H132.252C131.629 318.321 131.032 318.072 130.592 317.629C130.152 317.185 129.904 316.584 129.903 315.957V299.401C129.904 298.774 130.152 298.172 130.592 297.729C131.032 297.286 131.629 297.036 132.252 297.035H138.423C138.824 297.034 139.219 297.137 139.57 297.334C139.92 297.531 140.214 297.816 140.423 298.161L142.144 300.977H154.172C154.795 300.978 155.392 301.228 155.832 301.671C156.272 302.114 156.52 302.716 156.521 303.343V315.957C156.52 316.584 156.272 317.185 155.832 317.629C155.392 318.072 154.795 318.321 154.172 318.322Z" fill="#DE6987" />
  <path d="M153.459 326.686C153.569 326.888 153.67 327.096 153.763 327.309C154.226 328.364 154.463 329.505 154.458 330.658C154.453 331.81 154.206 332.949 153.734 334C153.261 335.05 152.574 335.987 151.716 336.751C150.859 337.515 149.851 338.088 148.758 338.432C148.504 338.512 148.246 338.577 147.985 338.629L133.032 377.58C132.538 378.853 131.649 379.931 130.498 380.655C129.347 381.379 127.995 381.711 126.642 381.599L126.567 381.585L94.1586 371.76C93.2775 371.493 92.4577 371.053 91.7465 370.465C91.0353 369.877 90.4468 369.152 90.0151 368.334C89.5833 367.516 89.3169 366.619 89.231 365.697C89.1452 364.774 89.2417 363.843 89.5151 362.959C89.7884 362.074 90.2331 361.252 90.8235 360.541C91.4138 359.831 92.1382 359.245 92.9547 358.817C93.7713 358.39 94.6638 358.13 95.5807 358.052C96.4976 357.974 97.4208 358.079 98.2969 358.363L121.227 365.777L138.98 334.082C138.823 333.753 138.689 333.413 138.579 333.065C137.978 331.128 138.113 329.035 138.958 327.192C139.803 325.35 141.298 323.889 143.153 323.094C145.007 322.299 147.089 322.226 148.993 322.89C150.898 323.554 152.49 324.907 153.459 326.686Z" fill="#A0616A" />
</svg>